<svg width="28" height="28" viewBox="0 0 28 28" fill="none" xmlns="http://www.w3.org/2000/svg">
<path fill-rule="evenodd" clip-rule="evenodd" d="M13.8349 2.67328C7.53155 2.67328 2.41577 7.78905 2.41577 14.0924C2.41577 20.3958 7.53155 25.5116 13.8349 25.5116C20.1383 25.5116 25.2541 20.3958 25.2541 14.0924C25.2541 7.78905 20.1383 2.67328 13.8349 2.67328ZM8.20535 21.2636C8.69638 20.2359 11.6882 19.231 13.835 19.231C15.9818 19.231 18.985 20.2359 19.4646 21.2636C17.9116 22.4969 15.959 23.2277 13.835 23.2277C11.711 23.2277 9.75836 22.4969 8.20535 21.2636ZM13.8349 16.9472C15.5021 16.9472 19.4646 17.6209 21.0975 19.6079C22.2622 18.0777 22.9702 16.1707 22.9702 14.0924C22.9702 9.05658 18.8708 4.95711 13.8349 4.95711C8.79907 4.95711 4.6996 9.05658 4.6996 14.0924C4.6996 16.1707 5.40759 18.0777 6.57234 19.6079C8.20528 17.6209 12.1677 16.9472 13.8349 16.9472ZM13.8349 7.24094C11.6196 7.24094 9.83821 9.02232 9.83821 11.2376C9.83821 13.4529 11.6196 15.2343 13.8349 15.2343C16.0502 15.2343 17.8316 13.4529 17.8316 11.2376C17.8316 9.02232 16.0502 7.24094 13.8349 7.24094ZM12.122 11.2376C12.122 12.1854 12.8871 12.9505 13.8349 12.9505C14.7827 12.9505 15.5478 12.1854 15.5478 11.2376C15.5478 10.2898 14.7827 9.52476 13.8349 9.52476C12.8871 9.52476 12.122 10.2898 12.122 11.2376Z" fill="#00ADA8"/>
</svg>
